<?xml version="1.0" encoding="iso-8859-1"?>
<!-- Generator: Adobe Illustrator 19.0.0, SVG Export Plug-In . SVG Version: 6.00 Build 0)  -->
<svg version="1.1" id="Capa_1" xmlns="http://www.w3.org/2000/svg" xmlns:xlink="http://www.w3.org/1999/xlink" x="0px" y="0px"
	 viewBox="0 0 512 512" style="enable-background:new 0 0 512 512;" xml:space="preserve">
<g>
	<path style="fill:#BDC3C7;" d="M341.333,76.8H170.667c-4.71,0-8.533-3.823-8.533-8.533V42.308c0-18.62,15.155-33.775,33.775-33.775
		h120.175c18.628,0,33.783,15.155,33.783,33.775v25.958C349.867,72.977,346.044,76.8,341.333,76.8z M179.2,59.733h153.6V42.308
		c0-9.216-7.492-16.708-16.708-16.708H195.908c-9.216,0-16.708,7.492-16.708,16.708V59.733z"/>
	<path style="fill:#BDC3C7;" d="M399.292,503.467H112.708c-15.121,0-27.375-12.254-27.375-27.375V128h341.333v348.092
		C426.667,491.213,414.413,503.467,399.292,503.467z"/>
</g>
<g>
	<path style="fill:#7F8C8D;" d="M443.733,128H68.267V99.2c0-21.794,17.673-39.467,39.467-39.467h296.533
		c21.794,0,39.467,17.673,39.467,39.467V128z"/>
	<path style="fill:#7F8C8D;" d="M153.6,452.267L153.6,452.267c-14.14,0-25.6-11.46-25.6-25.6V204.8c0-14.14,11.46-25.6,25.6-25.6
		l0,0c14.14,0,25.6,11.46,25.6,25.6v221.867C179.2,440.806,167.74,452.267,153.6,452.267z"/>
	<path style="fill:#7F8C8D;" d="M358.4,452.267L358.4,452.267c-14.14,0-25.6-11.46-25.6-25.6V204.8c0-14.14,11.46-25.6,25.6-25.6
		l0,0c14.14,0,25.6,11.46,25.6,25.6v221.867C384,440.806,372.54,452.267,358.4,452.267z"/>
	<path style="fill:#7F8C8D;" d="M256,452.267L256,452.267c-14.14,0-25.6-11.46-25.6-25.6V204.8c0-14.14,11.46-25.6,25.6-25.6l0,0
		c14.14,0,25.6,11.46,25.6,25.6v221.867C281.6,440.806,270.14,452.267,256,452.267z"/>
</g>
<rect x="85.333" y="128" style="fill:#587676;" width="341.333" height="17.067"/>
<g>
	<path style="fill:#611C90;" d="M399.292,512H112.708C92.911,512,76.8,495.889,76.8,476.092V128c0-4.71,3.823-8.533,8.533-8.533
		h341.333c4.719,0,8.533,3.823,8.533,8.533v348.092C435.2,495.889,419.089,512,399.292,512z M93.867,136.533v339.558
		c0,10.394,8.457,18.842,18.842,18.842h286.583c10.394,0,18.842-8.448,18.842-18.842V136.533H93.867z"/>
	<path style="fill:#611C90;" d="M443.733,136.533H68.267c-4.71,0-8.533-3.823-8.533-8.533V99.2c0-26.47,21.53-48,48-48h296.533
		c26.47,0,48,21.53,48,48V128C452.267,132.71,448.452,136.533,443.733,136.533z M76.8,119.467h358.4V99.2
		c0-17.058-13.875-30.933-30.933-30.933H107.733C90.675,68.267,76.8,82.142,76.8,99.2V119.467z"/>
	<path style="fill:#611C90;" d="M341.333,68.267H170.667c-4.71,0-8.533-3.823-8.533-8.533V33.775C162.133,15.147,177.28,0,195.908,0
		h120.175c18.628,0,33.783,15.147,33.783,33.775v25.958C349.867,64.444,346.052,68.267,341.333,68.267z M179.2,51.2h153.6V33.775
		c0-9.216-7.501-16.708-16.717-16.708H195.908c-9.216,0-16.708,7.492-16.708,16.708V51.2z"/>
	<path style="fill:#611C90;" d="M153.6,460.8c-18.825,0-34.133-15.309-34.133-34.133V204.8c0-18.825,15.309-34.133,34.133-34.133
		s34.133,15.309,34.133,34.133v221.867C187.733,445.491,172.425,460.8,153.6,460.8z M153.6,187.733
		c-9.412,0-17.067,7.654-17.067,17.067v221.867c0,9.412,7.654,17.067,17.067,17.067s17.067-7.654,17.067-17.067V204.8
		C170.667,195.388,163.012,187.733,153.6,187.733z"/>
	<path style="fill:#611C90;" d="M358.4,460.8c-18.825,0-34.133-15.309-34.133-34.133V204.8c0-18.825,15.309-34.133,34.133-34.133
		s34.133,15.309,34.133,34.133v221.867C392.533,445.491,377.225,460.8,358.4,460.8z M358.4,187.733
		c-9.412,0-17.067,7.654-17.067,17.067v221.867c0,9.412,7.654,17.067,17.067,17.067c9.412,0,17.067-7.654,17.067-17.067V204.8
		C375.467,195.388,367.812,187.733,358.4,187.733z"/>
	<path style="fill:#611C90;" d="M256,460.8c-18.825,0-34.133-15.309-34.133-34.133V204.8c0-18.825,15.309-34.133,34.133-34.133
		c18.825,0,34.133,15.309,34.133,34.133v221.867C290.133,445.491,274.825,460.8,256,460.8z M256,187.733
		c-9.412,0-17.067,7.654-17.067,17.067v221.867c0,9.412,7.654,17.067,17.067,17.067c9.412,0,17.067-7.654,17.067-17.067V204.8
		C273.067,195.388,265.412,187.733,256,187.733z"/>
</g>
<g>
</g>
<g>
</g>
<g>
</g>
<g>
</g>
<g>
</g>
<g>
</g>
<g>
</g>
<g>
</g>
<g>
</g>
<g>
</g>
<g>
</g>
<g>
</g>
<g>
</g>
<g>
</g>
<g>
</g>
</svg>
